<?xml version="1.0" encoding="UTF-8" standalone="no"?>
<svg
   width="16"
   height="16"
   version="1.1"
   id="svg1"
   sodipodi:docname="HSMBase.svg"
   inkscape:version="1.4.2 (f4327f4, 2025-05-13)"
   xmlns:inkscape="http://www.inkscape.org/namespaces/inkscape"
   xmlns:sodipodi="http://sodipodi.sourceforge.net/DTD/sodipodi-0.dtd"
   xmlns="http://www.w3.org/2000/svg"
   xmlns:svg="http://www.w3.org/2000/svg">
  <defs
     id="defs1" />
  <sodipodi:namedview
     id="namedview1"
     pagecolor="#505050"
     bordercolor="#ffffff"
     borderopacity="1"
     inkscape:showpageshadow="0"
     inkscape:pageopacity="0"
     inkscape:pagecheckerboard="1"
     inkscape:deskcolor="#505050"
     showgrid="false"
     inkscape:zoom="24.46875"
     inkscape:cx="3.2286079"
     inkscape:cy="9.5427842"
     inkscape:window-width="1920"
     inkscape:window-height="1001"
     inkscape:window-x="-9"
     inkscape:window-y="-9"
     inkscape:window-maximized="1"
     inkscape:current-layer="svg1" />
  <path
     id="rect12"
     style="fill:#e0e0e0;stroke-width:1.09409;stroke-linecap:square;paint-order:fill markers stroke"
     d="M 4.5 4.5 C 2.561 4.5 1 6.061 1 8 C 1 9.939 2.561 11.5 4.5 11.5 L 11.5 11.5 C 13.439 11.5 15 9.939 15 8 C 15 6.061 13.439 4.5 11.5 4.5 L 4.5 4.5 z M 4.7910156 6 L 11.208984 6 C 12.478567 6 13.5 6.892 13.5 8 C 13.5 9.108 12.478567 10 11.208984 10 L 4.7910156 10 C 3.5214324 10 2.5 9.108 2.5 8 C 2.5 6.892 3.5214324 6 4.7910156 6 z " />
</svg>
