<?xml version="1.0" encoding="UTF-8" standalone="no"?>
<svg
   width="16"
   height="16"
   version="1.1"
   id="svg1"
   sodipodi:docname="HSMBranch.svg"
   inkscape:version="1.4.2 (f4327f4, 2025-05-13)"
   xmlns:inkscape="http://www.inkscape.org/namespaces/inkscape"
   xmlns:sodipodi="http://sodipodi.sourceforge.net/DTD/sodipodi-0.dtd"
   xmlns="http://www.w3.org/2000/svg"
   xmlns:svg="http://www.w3.org/2000/svg">
  <defs
     id="defs1" />
  <sodipodi:namedview
     id="namedview1"
     pagecolor="#505050"
     bordercolor="#ffffff"
     borderopacity="1"
     inkscape:showpageshadow="0"
     inkscape:pageopacity="0"
     inkscape:pagecheckerboard="1"
     inkscape:deskcolor="#505050"
     showgrid="false"
     inkscape:zoom="34.604038"
     inkscape:cx="7.3257346"
     inkscape:cy="7.2679379"
     inkscape:window-width="1920"
     inkscape:window-height="1001"
     inkscape:window-x="-9"
     inkscape:window-y="-9"
     inkscape:window-maximized="1"
     inkscape:current-layer="svg1" />
  <path
     id="rect12"
     style="fill:#e0e0e0;stroke-width:1.09409;stroke-linecap:square;paint-order:fill markers stroke"
     d="M 3,0.93359375 V 4.8339844 C 1.815592,5.3937768 1,6.5984363 1,8 c 0,1.939 1.561,3.5 3.5,3.5 h 7 C 13.439,11.5 15,9.939 15,8 15,6.061 13.439,4.5 11.5,4.5 h -7 c -0.1233768,0 -0.2452231,0.0072 -0.3652344,0.019531 V 0.93359375 Z M 4.7910156,6 H 11.208984 C 12.478567,6 13.5,6.892 13.5,8 c 0,1.108 -1.021433,2 -2.291016,2 H 4.7910156 C 3.5214324,10 2.5,9.108 2.5,8 2.5,7.5261304 2.6868305,7.0919708 3,6.75 V 8.5664062 H 8.6113281 V 9.7441406 L 11.630859,8 8.6113281,6.2558594 V 7.4335938 H 4.1347656 V 6.0820312 C 4.342497,6.0282876 4.5627452,6 4.7910156,6 Z"
     sodipodi:nodetypes="ccsssssscccsssssscccccccccs" />
  <g
     id="path15"
     style="opacity:1">
    <g
       id="g2">
      <g
         id="path2"
         style="opacity:1">
        <path
           style="baseline-shift:baseline;display:inline;overflow:visible;vector-effect:none;fill:#e0e0e0;fill-rule:evenodd;enable-background:accumulate;stop-color:#000000;stop-opacity:1"
           d="M 11.252523,8 8.8005508,9.417325 v -2.83465 z"
           id="path3" />
      </g>
    </g>
  </g>
</svg>
