<?xml version="1.0" encoding="UTF-8" standalone="no"?>
<svg
   width="16"
   height="16"
   version="1.1"
   id="svg1"
   sodipodi:docname="HSMContext.svg"
   inkscape:version="1.4.2 (f4327f4, 2025-05-13)"
   xmlns:inkscape="http://www.inkscape.org/namespaces/inkscape"
   xmlns:sodipodi="http://sodipodi.sourceforge.net/DTD/sodipodi-0.dtd"
   xmlns="http://www.w3.org/2000/svg"
   xmlns:svg="http://www.w3.org/2000/svg">
  <defs
     id="defs1" />
  <sodipodi:namedview
     id="namedview1"
     pagecolor="#505050"
     bordercolor="#ffffff"
     borderopacity="1"
     inkscape:showpageshadow="0"
     inkscape:pageopacity="0"
     inkscape:pagecheckerboard="1"
     inkscape:deskcolor="#505050"
     showgrid="false"
     inkscape:zoom="45.254834"
     inkscape:cx="5.1265242"
     inkscape:cy="6.1098445"
     inkscape:window-width="1920"
     inkscape:window-height="1001"
     inkscape:window-x="-9"
     inkscape:window-y="-9"
     inkscape:window-maximized="1"
     inkscape:current-layer="path17" />
  <path
     id="rect12"
     style="fill:#e0e0e0;stroke-width:0.46311;stroke-linecap:square;paint-order:fill markers stroke"
     d="M 1.5898438 0.22265625 C 1.0060989 0.22265625 1.0019531 0.96902891 1.0019531 1.34375 L 1.0019531 3.9003906 C 0.99755002 6.5969408 1 9.2936395 1 11.990234 C 1 13.649156 2.3508436 15 4.0097656 15 L 11.990234 15 C 13.649156 15 15 13.649156 15 11.990234 L 15 4.0097656 C 15 2.3508436 13.649156 1 11.990234 1 L 5.8632812 1 C 5.8281958 0.54130622 5.6802971 0.22265625 5.2890625 0.22265625 L 1.5898438 0.22265625 z M 4.0097656 2 L 11.990234 2 C 13.112432 2 14 2.8875678 14 4.0097656 L 14 11.990234 C 14 13.112432 13.112432 14 11.990234 14 L 4.0097656 14 C 2.8875678 14 2 13.112432 2 11.990234 L 2 4.0097656 C 2 2.8875678 2.8875678 2 4.0097656 2 z M 3 3.0175781 L 3 11.832031 L 4.9648438 11.832031 L 4.9648438 12.525391 L 6.7382812 11.5 L 4.9648438 10.474609 L 4.9648438 11.166016 L 3.6660156 11.166016 L 3.6660156 8.5 L 4.9648438 8.5 L 4.9648438 9.1914062 L 6.7382812 8.1660156 L 4.9648438 7.140625 L 4.9648438 7.8339844 L 3.6660156 7.8339844 L 3.6660156 5.1660156 L 4.9648438 5.1660156 L 4.9648438 5.8574219 L 6.7382812 4.8320312 L 4.9648438 3.8066406 L 4.9648438 4.5 L 3.6660156 4.5 L 3.6660156 3.0175781 L 3 3.0175781 z M 8.5546875 3.3515625 C 7.7339495 3.3515625 7.0742186 4.0112727 7.0742188 4.8320312 C 7.0742188 5.6527899 7.7339495 6.3144531 8.5546875 6.3144531 L 11.517578 6.3144531 C 12.338316 6.3144531 13 5.6527899 13 4.8320312 C 13 4.0112726 12.338316 3.3515625 11.517578 3.3515625 L 8.5546875 3.3515625 z M 8.6796875 3.9863281 L 11.394531 3.9863281 C 11.931918 3.9863281 12.365234 4.3630263 12.365234 4.8320312 C 12.365234 5.3010363 11.931918 5.6796875 11.394531 5.6796875 L 8.6796875 5.6796875 C 8.1422995 5.6796875 7.7089844 5.3010364 7.7089844 4.8320312 C 7.7089844 4.3630262 8.1422995 3.9863281 8.6796875 3.9863281 z M 8.5546875 6.6835938 C 7.7339495 6.6835938 7.0742186 7.3452572 7.0742188 8.1660156 C 7.0742188 8.9867739 7.7339495 9.6484375 8.5546875 9.6484375 L 11.517578 9.6484375 C 12.338316 9.6484375 13 8.9867739 13 8.1660156 C 13 7.3452572 12.338316 6.6835936 11.517578 6.6835938 L 8.5546875 6.6835938 z M 8.6796875 7.3203125 L 11.394531 7.3203125 C 11.931918 7.3203125 12.365234 7.6970104 12.365234 8.1660156 C 12.365234 8.6350208 11.931918 9.0117187 11.394531 9.0117188 L 8.6796875 9.0117188 C 8.1422995 9.0117188 7.7089844 8.6350208 7.7089844 8.1660156 C 7.7089844 7.6970104 8.1422995 7.3203125 8.6796875 7.3203125 z M 8.5546875 10.017578 C 7.7339495 10.017578 7.0742186 10.679241 7.0742188 11.5 C 7.0742188 12.320759 7.7339495 12.980469 8.5546875 12.980469 L 11.517578 12.980469 C 12.338315 12.980469 13 12.320759 13 11.5 C 13 10.679241 12.338315 10.017578 11.517578 10.017578 L 8.5546875 10.017578 z M 8.6796875 10.652344 L 11.394531 10.652344 C 11.931919 10.652344 12.365234 11.030995 12.365234 11.5 C 12.365234 11.969005 11.931919 12.345703 11.394531 12.345703 L 8.6796875 12.345703 C 8.1422995 12.345703 7.7089844 11.969005 7.7089844 11.5 C 7.7089844 11.030995 8.1422995 10.652344 8.6796875 10.652344 z " />
  <g
     id="path15"
     style="opacity:1">
    <g
       id="g2">
      <g
         id="path2"
         style="opacity:1" />
    </g>
  </g>
  <g
     id="path16"
     style="opacity:1">
    <g
       id="g10">
      <g
         id="path10"
         style="opacity:1" />
    </g>
  </g>
  <g
     id="path17"
     style="opacity:1">
    <g
       id="g6">
      <g
         id="path6"
         style="opacity:1" />
    </g>
  </g>
</svg>
