<?xml version="1.0" encoding="UTF-8" standalone="no"?>
<svg
   width="16"
   height="16"
   version="1.1"
   id="svg1"
   sodipodi:docname="HSMModule.svg"
   inkscape:version="1.4.2 (f4327f4, 2025-05-13)"
   xmlns:inkscape="http://www.inkscape.org/namespaces/inkscape"
   xmlns:sodipodi="http://sodipodi.sourceforge.net/DTD/sodipodi-0.dtd"
   xmlns="http://www.w3.org/2000/svg"
   xmlns:svg="http://www.w3.org/2000/svg">
  <defs
     id="defs1" />
  <sodipodi:namedview
     id="namedview1"
     pagecolor="#505050"
     bordercolor="#ffffff"
     borderopacity="1"
     inkscape:showpageshadow="0"
     inkscape:pageopacity="0"
     inkscape:pagecheckerboard="1"
     inkscape:deskcolor="#505050"
     showgrid="false"
     inkscape:zoom="48.9375"
     inkscape:cx="4.8837803"
     inkscape:cy="7.816092"
     inkscape:window-width="1920"
     inkscape:window-height="1001"
     inkscape:window-x="-9"
     inkscape:window-y="-9"
     inkscape:window-maximized="1"
     inkscape:current-layer="svg1" />
  <path
     id="circle12"
     style="fill:#e0e0e0;fill-opacity:1;stroke-width:0.475591;stroke-linecap:square;paint-order:fill markers stroke"
     d="m 11,0.69921875 c -0.146913,-1.1751e-4 -0.293688,0.009015 -0.439453,0.0273438 L 10.347656,1.4101562 C 10.08484,1.4785989 9.8325356,1.5824119 9.5976562,1.71875 L 8.96875,1.3496094 C 8.6778261,1.5566044 8.4202885,1.8068967 8.2050781,2.0917969 l 0.3476563,0.6386719 c -0.1321173,0.2126366 -0.2371,0.4409739 -0.3125,0.6796874 L 7.5546875,3.578125 C 7.5180174,3.7831171 7.4997157,3.9909729 7.5,4.1992188 c 5.949e-4,0.151559 0.011033,0.3029193 0.03125,0.453125 l 0.6171875,0.1835937 c 0.049999,0.2843343 0.1407792,0.5599627 0.2695313,0.8183594 l -0.3125,0.5097656 c 0.2002472,0.2958731 0.4446149,0.5593424 0.7246093,0.78125 L 9.2890625,6.7050781 C 9.582854,6.928012 9.9152333,7.0948638 10.269531,7.1972656 l 0.115235,0.4472656 c 0.203066,0.036324 0.408945,0.054625 0.615234,0.054688 0.146913,1.175e-4 0.293688,-0.00902 0.439453,-0.027344 l 0.121094,-0.3925781 c 0.403816,-0.06239 0.79063,-0.2066144 1.136719,-0.4238281 l 0.333984,0.1953124 c 0.291069,-0.2075881 0.548614,-0.4585465 0.763672,-0.7441406 l -0.1875,-0.3417968 c 0.208803,-0.3178036 0.355284,-0.6724064 0.43164,-1.0449219 l 0.40625,-0.099609 c 0.03667,-0.204992 0.05497,-0.4128478 0.05469,-0.6210937 5.3e-5,-0.1515166 -0.0097,-0.3028767 -0.0293,-0.453125 L 14.017578,3.6113281 C 13.937925,3.2824731 13.803212,2.969463 13.619141,2.6855469 L 13.896484,2.234375 C 13.695644,1.9383593 13.45061,1.6748823 13.169922,1.453125 l -0.53711,0.28125 C 12.367559,1.5772644 12.079674,1.4619785 11.779297,1.3925781 L 11.615234,0.75390625 C 11.412168,0.71758184 11.206289,0.69928143 11,0.69921875 Z m 0,2.50000005 c 0.552285,-3e-7 1,0.4477151 1,1 0,0.5522849 -0.447715,1.0000003 -1,1 -0.552285,3e-7 -1.0000003,-0.4477151 -1,-1 -3e-7,-0.5522849 0.447715,-1.0000003 1,-1 z M 3.7148438,5.5 V 5.9863281 8.84375 C 2.6993349,9.3234576 2,10.35508 2,11.556641 c 0,1.662 1.338,3 3,3 h 6 c 1.662,0 3,-1.338 3,-3 C 14,9.8946395 12.662,8.5566406 11,8.5566406 H 5 c -0.1062296,0 -0.2111356,0.00691 -0.3144531,0.017578 V 5.9863281 5.5 Z M 5.25,9.84375 h 5.5 c 1.088214,0 1.964844,0.763177 1.964844,1.712891 0,0.949714 -0.87663,1.714843 -1.964844,1.714843 h -5.5 c -1.0882147,0 -1.9648437,-0.765129 -1.9648438,-1.714843 0,-0.406456 0.1609203,-0.779055 0.4296876,-1.072266 v 1.558594 h 4.8085937 v 1.009765 L 11.111328,11.556641 8.5234375,10.0625 v 1.009766 H 4.6855469 V 9.9140625 C 4.8640111,9.8677645 5.0538286,9.84375 5.25,9.84375 Z"
     sodipodi:nodetypes="cccccccccccccccccccccccccccccccccccccssssscccssssssccccsssssscccccccccs" />
  <g
     id="path15-1"
     style="opacity:1">
    <g
       id="g2">
      <g
         id="path2"
         style="opacity:1">
        <path
           style="baseline-shift:baseline;display:inline;overflow:visible;vector-effect:none;fill:#e0e0e0;fill-rule:evenodd;enable-background:accumulate;stop-color:#000000;stop-opacity:1"
           d="m 10.787877,11.557369 -2.1016907,1.21485 v -2.4297 z"
           id="path3" />
      </g>
    </g>
  </g>
</svg>
